HIERARCHY
ROOT hip
{
  OFFSET 73.279 98.5902 98.6645
  CHANNELS 6 Xposition Yposition Zposition Zrotation Xrotation Yrotation
  JOINT abdomen
  {
    OFFSET 0 20.6881 -0.73152
    CHANNELS 3 Zrotation Xrotation Yrotation
    JOINT chest
    {
      OFFSET 0 11.7043 -0.48768
      CHANNELS 3 Zrotation Xrotation Yrotation
      JOINT neck
      {
        OFFSET 0 22.1894 -2.19456
        CHANNELS 3 Zrotation Xrotation Yrotation
        JOINT head
        {
          OFFSET -0.24384 7.07133 1.2192
          CHANNELS 3 Zrotation Xrotation Yrotation
          JOINT leftEye
          {
            OFFSET 4.14528 8.04674 8.04672
            CHANNELS 3 Zrotation Xrotation Yrotation
            End Site
            {
              OFFSET 1 0 0
            }
          }
          JOINT rightEye
          {
            OFFSET -3.6576 8.04674 8.04672
            CHANNELS 3 Zrotation Xrotation Yrotation
            End Site
            {
              OFFSET 1 0 0
            }
          }
        }
      }
      JOINT rCollar
      {
        OFFSET -2.68224 19.2634 -4.8768
        CHANNELS 3 Zrotation Xrotation Yrotation
        JOINT rShldr
        {
          OFFSET -8.77824 -1.95073 1.46304
          CHANNELS 3 Zrotation Xrotation Yrotation
          JOINT rForeArm
          {
            OFFSET -28.1742 -1.7115 0.48768
            CHANNELS 3 Zrotation Xrotation Yrotation
            JOINT rHand
            {
              OFFSET -22.5879 0.773209 7.07136
              CHANNELS 3 Zrotation Xrotation Yrotation
              JOINT rThumb1
              {
                OFFSET -1.2192 -0.487915 3.41376
                CHANNELS 3 Zrotation Xrotation Yrotation
                JOINT rThumb2
                {
                  OFFSET -3.37035 -0.52449 3.41376
                  CHANNELS 3 Zrotation Xrotation Yrotation
                  End Site
                  {
                    OFFSET -1.78271 -1.18214 1.43049
                  }
                }
              }
              JOINT rIndex1
              {
                OFFSET -7.75947 0.938293 5.60832
                CHANNELS 3 Zrotation Xrotation Yrotation
                JOINT rIndex2
                {
                  OFFSET -2.54057 -0.884171 1.56538
                  CHANNELS 3 Zrotation Xrotation Yrotation
                  End Site
                  {
                    OFFSET -1.62519 -0.234802 1.16502
                  }
                }
              }
              JOINT rMid1
              {
                OFFSET -8.24714 1.18213 3.41376
                CHANNELS 3 Zrotation Xrotation Yrotation
                JOINT rMid2
                {
                  OFFSET -3.10165 -0.590103 1.0647
                  CHANNELS 3 Zrotation Xrotation Yrotation
                  End Site
                  {
                    OFFSET -2.48547 -0.328903 0.83742
                  }
                }
              }
              JOINT rRing1
              {
                OFFSET -8.82822 0.546677 1.51678
                CHANNELS 3 Zrotation Xrotation Yrotation
                JOINT rRing2
                {
                  OFFSET -2.60934 -0.819778 -0.0198488
                  CHANNELS 3 Zrotation Xrotation Yrotation
                  End Site
                  {
                    OFFSET -2.33842 -0.294052 0.168128
                  }
                }
              }
              JOINT rPinky1
              {
                OFFSET -8.27202 -0.0477905 -0.4584
                CHANNELS 3 Zrotation Xrotation Yrotation
                JOINT rPinky2
                {
                  OFFSET -1.82734 -0.647385 -0.700984
                  CHANNELS 3 Zrotation Xrotation Yrotation
                  End Site
                  {
                    OFFSET -1.69225 -0.51767 -0.607171
                  }
                }
              }
            }
          }
        }
      }
      JOINT lCollar
      {
        OFFSET 2.68224 19.2634 -4.8768
        CHANNELS 3 Zrotation Xrotation Yrotation
        JOINT lShldr
        {
          OFFSET 8.77824 -1.95073 1.46304
          CHANNELS 3 Zrotation Xrotation Yrotation
          JOINT lForeArm
          {
            OFFSET 28.1742 -1.7115 0.48768
            CHANNELS 3 Zrotation Xrotation Yrotation
            JOINT lHand
            {
              OFFSET 22.5879 0.773209 7.07136
              CHANNELS 3 Zrotation Xrotation Yrotation
              JOINT lThumb1
              {
                OFFSET 1.2192 -0.487915 3.41376
                CHANNELS 3 Zrotation Xrotation Yrotation
                JOINT lThumb2
                {
                  OFFSET 3.37035 -0.52449 3.41376
                  CHANNELS 3 Zrotation Xrotation Yrotation
                  End Site
                  {
                    OFFSET 1.78271 -1.18214 1.43049
                  }
                }
              }
              JOINT lIndex1
              {
                OFFSET 7.75947 0.938293 5.60832
                CHANNELS 3 Zrotation Xrotation Yrotation
                JOINT lIndex2
                {
                  OFFSET 2.54057 -0.884171 1.56538
                  CHANNELS 3 Zrotation Xrotation Yrotation
                  End Site
                  {
                    OFFSET 1.62519 -0.234802 1.16502
                  }
                }
              }
              JOINT lMid1
              {
                OFFSET 8.24714 1.18213 3.41376
                CHANNELS 3 Zrotation Xrotation Yrotation
                JOINT lMid2
                {
                  OFFSET 3.10165 -0.590103 1.0647
                  CHANNELS 3 Zrotation Xrotation Yrotation
                  End Site
                  {
                    OFFSET 2.48547 -0.328903 0.83742
                  }
                }
              }
              JOINT lRing1
              {
                OFFSET 8.82822 0.546677 1.51678
                CHANNELS 3 Zrotation Xrotation Yrotation
                JOINT lRing2
                {
                  OFFSET 2.60934 -0.819778 -0.0198488
                  CHANNELS 3 Zrotation Xrotation Yrotation
                  End Site
                  {
                    OFFSET 2.33842 -0.294052 0.168128
                  }
                }
              }
              JOINT lPinky1
              {
                OFFSET 8.27202 -0.0477905 -0.4584
                CHANNELS 3 Zrotation Xrotation Yrotation
                JOINT lPinky2
                {
                  OFFSET 1.82734 -0.647385 -0.700984
                  CHANNELS 3 Zrotation Xrotation Yrotation
                  End Site
                  {
                    OFFSET 1.69225 -0.51767 -0.607171
                  }
                }
              }
            }
          }
        }
      }
    }
  }
  JOINT rButtock
  {
    OFFSET -8.77824 4.35084 1.2192
    CHANNELS 3 Zrotation Xrotation Yrotation
    JOINT rThigh
    {
      OFFSET 0 -1.70687 -2.19456
      CHANNELS 3 Zrotation Xrotation Yrotation
      JOINT rShin
      {
        OFFSET 0 -36.8199 0.73152
        CHANNELS 3 Zrotation Xrotation Yrotation
        JOINT rFoot
        {
          OFFSET 0.73152 -45.1104 -5.12064
          CHANNELS 3 Zrotation Xrotation Yrotation
          End Site
          {
            OFFSET -1.1221 -3.69964 12.103
          }
        }
      }
    }
  }
  JOINT lButtock
  {
    OFFSET 8.77824 4.35084 1.2192
    CHANNELS 3 Zrotation Xrotation Yrotation
    JOINT lThigh
    {
      OFFSET 0 -1.70687 -2.19456
      CHANNELS 3 Zrotation Xrotation Yrotation
      JOINT lShin
      {
        OFFSET 0 -36.8199 0.73152
        CHANNELS 3 Zrotation Xrotation Yrotation
        JOINT lFoot
        {
          OFFSET -0.73152 -45.1104 -5.12064
          CHANNELS 3 Zrotation Xrotation Yrotation
          End Site
          {
            OFFSET 1.1221 -3.69964 12.103
          }
        }
      }
    }
  }
}
MOTION
Frames:	7
Frame Time:	0.00833333
-8.40979 85.1388 132.266 -0.311928 -0.00136762 0.00530378 0.41059 -0.00336425 0.0117806 0.113459 -0.00539521 0.0196593 5.97708e-015 0 6.21206e-018 1.78968e-014 3.18055e-015 3.41661e-017 -0 0 0 -0 0 0 3.07993e-015 -1.94126e-018 1.98785e-016 6.40019e-014 -1.80149e-016 9.93923e-016 1.08223e-012 -3.22429e-013 -1.27222e-014 1.23416e-011 3.22379e-013 4.13472e-014 2.91195e-011 3.6931e-015 6.04305e-014 5.02734e-011 3.18055e-015 9.22361e-014 2.91251e-011 3.18055e-015 5.40694e-014 7.73091 5.47488 0.417314 2.91196e-011 3.67752e-015 5.725e-014 2.90554 0.965183 0.102902 2.91284e-011 3.57812e-015 5.32743e-014 10.2786 0.731801 0.0259123 2.91144e-011 5.96354e-015 6.36111e-014 2.22167 -0.733487 -0.20892 2.88381e-015 -1.94126e-018 -1.98785e-016 6.20597e-014 -4.78326e-016 -1.98785e-016 1.07478e-012 3.21435e-013 0 1.23492e-011 -3.27026e-013 4.13472e-014 2.91224e-011 -4.39172e-015 4.45278e-014 5.03005e-011 -3.18055e-015 1.04163e-013 2.91176e-011 -3.57812e-015 6.36111e-014 -7.73091 5.47488 -0.417314 2.91222e-011 -4.77083e-015 5.08889e-014 -2.90554 0.965183 -0.102902 2.91169e-011 -4.07509e-015 5.64548e-014 -10.2786 0.731801 -0.0259123 2.91245e-011 -3.97569e-016 5.725e-014 -2.22167 -0.733487 0.20892 -2.03217e-016 0 -3.88251e-019 0.7706 -4.17183 -0.0656814 -0.00265484 2.00555 -0.01827 -0.461825 2.16687 0.0961002 2.03217e-016 0 3.88251e-019 -0.143239 -2.55995 0.0260686 0.00716324 -0.914091 0.0621722 0.453779 3.47457 -0.121226 
-7.72203 83.4464 126.244 4.98589 4.53226 -49.388 -1.30333 -8.1473 -1.01258 1.06565 3.90709 -0.175031 -0.0679561 4.36332 -1.39739 1.79047 -3.58462 -2.15757 -0 0 0 -0 0 0 4.53179e-014 1.07815e-013 1.3133e-014 23.0307 2.52764 -2.42245 -5.18623 -2.58734 7.83404 0.00155545 -0.87645 -0.123125 -8.05152e-010 8.38724e-010 -7.8689e-010 -1.3915e-009 1.44907e-009 -1.36238e-009 -8.05147e-010 8.38723e-010 -7.86903e-010 7.73091 5.47488 0.417314 -8.05152e-010 8.38724e-010 -7.86896e-010 2.90554 0.965183 0.102902 -8.05144e-010 8.38724e-010 -7.86898e-010 10.2786 0.731801 0.0259123 -8.05157e-010 8.38726e-010 -7.8689e-010 2.22167 -0.733487 -0.20892 4.51974e-014 1.07814e-013 1.27898e-014 -21.2708 4.71635 0.0359495 3.05293 -1.21543 -4.93867 -0.00538374 1.62783 -0.228443 -1.03167e-009 8.01825e-011 1.06952e-009 -1.77667e-009 1.40589e-010 1.85511e-009 -1.03168e-009 8.01831e-011 1.06954e-009 -7.73091 5.47488 -0.417314 -1.03167e-009 8.01835e-011 1.06952e-009 -2.90554 0.965183 -0.102902 -1.03168e-009 8.01839e-011 1.06953e-009 -10.2786 0.731801 -0.0259123 -1.03167e-009 8.01856e-011 1.06953e-009 -2.22167 -0.733487 0.20892 -2.03217e-016 0 -3.88251e-019 0.870506 -11.0905 1.94517 0.00273307 4.40395 0.0357472 -0.498726 -2.56971 -0.387704 2.03217e-016 0 3.88251e-019 -0.542582 -9.03635 -1.77799 0.00587774 1.08123 0.0292866 0.428268 1.82515 -1.012 
-7.7478 83.4435 126.235 13.7801 -2.74141 -100.84 -3.44627 -16.7495 -2.16433 2.10152 8.04309 -0.382956 0.0875536 8.97264 -2.89091 3.40097 -7.3663 -4.44313 -0 0 0 -0 0 0 9.17002e-014 2.23633e-013 2.74509e-014 47.6128 5.17774 -5.00315 -9.90586 -5.16039 16.1649 -0.000895804 -1.79685 -0.252523 -1.71068e-009 1.72975e-009 -1.61977e-009 -2.95644e-009 2.9885e-009 -2.8044e-009 -1.71067e-009 1.72975e-009 -1.61979e-009 7.73091 5.47488 0.417314 -1.71068e-009 1.72975e-009 -1.61978e-009 2.90554 0.965183 0.102902 -1.71067e-009 1.72975e-009 -1.61978e-009 10.2786 0.731801 0.0259123 -1.71068e-009 1.72975e-009 -1.61977e-009 2.22167 -0.733487 -0.20892 9.16599e-014 2.23631e-013 2.71652e-014 -43.7644 9.70318 0.0766261 6.05533 -2.47133 -10.1698 0.00305713 3.34608 -0.470201 -2.18187e-009 1.34878e-010 2.19716e-009 -3.75779e-009 2.37122e-010 3.81121e-009 -2.18187e-009 1.34879e-010 2.19718e-009 -7.73091 5.47488 -0.417314 -2.18187e-009 1.34881e-010 2.19717e-009 -2.90554 0.965183 -0.102902 -2.18188e-009 1.34881e-010 2.19717e-009 -10.2786 0.731801 -0.0259123 -2.18187e-009 1.34881e-010 2.19717e-009 -2.22167 -0.733487 0.20892 -2.03217e-016 0 -3.88251e-019 1.52843 -18.3697 4.20189 0.00348708 6.93983 0.0932961 -0.624346 -7.57948 -0.901129 2.03217e-016 0 3.88251e-019 -1.42572 -15.8569 -3.77964 0.00701555 3.18858 -0.00546011 0.345099 0.084055 -1.96162 
-7.73447 83.4387 126.259 11.3252 -17.4635 -145.771 -5.67695 -24.4025 -3.32827 3.05121 11.7315 -0.575207 0.448416 13.0584 -4.29118 4.55125 -10.6923 -6.5747 -0 0 0 -0 0 0 1.29794e-013 3.23449e-013 3.90014e-014 69.7363 7.52849 -7.32374 -13.4883 -7.18282 23.675 -0.00664436 -2.6293 -0.369722 -2.4737e-009 2.51616e-009 -2.36079e-009 -4.27506e-009 4.34721e-009 -4.08734e-009 -2.47369e-009 2.51616e-009 -2.36082e-009 7.73091 5.47488 0.417314 -2.47369e-009 2.51616e-009 -2.3608e-009 2.90554 0.965183 0.102902 -2.47369e-009 2.51616e-009 -2.3608e-009 10.2786 0.731801 0.0259123 -2.4737e-009 2.51617e-009 -2.3608e-009 2.22167 -0.733487 -0.20892 1.29825e-013 3.23446e-013 3.87669e-014 -63.8306 14.149 0.110846 8.53696 -3.53808 -14.8416 0.0229102 4.88317 -0.687547 -3.15327e-009 2.40556e-010 3.20847e-009 -5.4306e-009 4.21774e-010 5.56513e-009 -3.15327e-009 2.40557e-010 3.20848e-009 -7.73091 5.47488 -0.417314 -3.15326e-009 2.4056e-010 3.20847e-009 -2.90554 0.965183 -0.102902 -3.15328e-009 2.4056e-010 3.20848e-009 -10.2786 0.731801 -0.0259123 -3.15327e-009 2.40558e-010 3.20848e-009 -2.22167 -0.733487 0.20892 -2.03217e-016 0 -3.88251e-019 2.65579 -24.8074 6.45538 -0.00021208 9.20074 0.145312 -0.816485 -12.0396 -1.38447 2.03217e-016 0 3.88251e-019 -2.6464 -21.9023 -5.73502 0.0101865 5.07188 -0.0366277 0.223464 -1.47111 -2.79337 
-7.77408 83.4331 126.307 -0.131193 -25.3984 -179.838 -7.43884 -29.7133 -4.27154 3.7282 14.3016 -0.718043 0.864135 15.8642 -5.36532 5.12294 -12.935 -8.22543 -0 0 0 -0 0 0 1.47165e-013 3.83259e-013 4.36332e-014 85.2589 9.18278 -8.94085 -15.6651 -8.37973 28.9688 -0.0129073 -3.24191 -0.456112 -2.88044e-009 3.04106e-009 -2.87216e-009 -4.9779e-009 5.25416e-009 -4.97258e-009 -2.88043e-009 3.04106e-009 -2.87218e-009 7.73091 5.47488 0.417314 -2.88044e-009 3.04106e-009 -2.87217e-009 2.90554 0.965183 0.102902 -2.88043e-009 3.04106e-009 -2.87217e-009 10.2786 0.731801 0.0259123 -2.88044e-009 3.04107e-009 -2.87216e-009 2.22167 -0.733487 -0.20892 1.47245e-013 3.83255e-013 4.34345e-014 -77.8138 17.2424 0.125714 10.154 -4.23552 -18.0906 0.0438778 5.96764 -0.841773 -3.67768e-009 4.73689e-010 3.92893e-009 -6.33265e-009 8.26728e-010 6.81357e-009 -3.67768e-009 4.7369e-010 3.92894e-009 -7.73091 5.47488 -0.417314 -3.67768e-009 4.73694e-010 3.92893e-009 -2.90554 0.965183 -0.102902 -3.6777e-009 4.73693e-010 3.92893e-009 -10.2786 0.731801 -0.0259123 -3.67768e-009 4.7369e-010 3.92893e-009 -2.22167 -0.733487 0.20892 -2.03217e-016 0 -3.88251e-019 3.80881 -29.2497 8.26634 -0.00530996 10.7742 0.182131 -1.00516 -15.129 -1.7629 2.03217e-016 0 3.88251e-019 -3.76853 -26.0897 -7.2583 0.013603 6.39506 -0.0586305 0.116221 -2.56459 -3.32835 
-7.74646 83.4327 126.306 -6.53636 -26.5034 166.045 -8.17506 -31.7691 -4.70436 4.00247 15.2832 -0.783785 1.16181 16.9044 -5.92626 5.11379 -13.7085 -9.16043 -0 0 0 -0 0 0 1.34843e-013 3.94851e-013 3.89296e-014 91.3345 9.92017 -9.55452 -16.4584 -8.79795 31.0707 -0.01658 -3.56306 -0.501449 -2.8021e-009 3.30907e-009 -3.15854e-009 -4.84228e-009 5.71746e-009 -5.46811e-009 -2.80209e-009 3.30907e-009 -3.15857e-009 7.73091 5.47488 0.417314 -2.8021e-009 3.30907e-009 -3.15855e-009 2.90554 0.965183 0.102902 -2.80209e-009 3.30907e-009 -3.15855e-009 10.2786 0.731801 0.0259123 -2.8021e-009 3.30908e-009 -3.15855e-009 2.22167 -0.733487 -0.20892 1.3494e-013 3.94847e-013 3.87413e-014 -83.283 18.4332 0.128937 10.7426 -4.48415 -19.3221 0.0544124 6.43511 -0.908508 -3.60499e-009 1.00144e-009 4.4103e-009 -6.20421e-009 1.74159e-009 7.64509e-009 -3.60499e-009 1.00144e-009 4.4103e-009 -7.73091 5.47488 -0.417314 -3.60499e-009 1.00145e-009 4.4103e-009 -2.90554 0.965183 -0.102902 -3.605e-009 1.00145e-009 4.4103e-009 -10.2786 0.731801 -0.0259123 -3.60499e-009 1.00144e-009 4.4103e-009 -2.22167 -0.733487 0.20892 -2.03217e-016 0 -3.88251e-019 4.4009 -30.9843 9.15228 -0.00779135 11.3861 0.196821 -1.11274 -16.2954 -1.9829 2.03217e-016 0 3.88251e-019 -4.27429 -27.7374 -7.94483 0.0151464 6.92965 -0.0675279 0.0786831 -3.01178 -3.43994 
-7.77791 83.4314 126.322 -5.79074 -26.4768 167.687 -8.07326 -31.5083 -4.70423 3.98205 15.1313 -0.792165 1.31717 16.6901 -6.09888 4.76218 -13.446 -9.56174 -0 0 0 -0 0 0 1.01342e-013 3.7163e-013 2.7541e-014 90.6138 10.0122 -9.43953 -16.3881 -8.76787 30.8722 -0.0175085 -3.67528 -0.517282 -2.37662e-009 3.38839e-009 -3.27963e-009 -4.10665e-009 5.85489e-009 -5.67733e-009 -2.37662e-009 3.38839e-009 -3.27965e-009 7.73091 5.47488 0.417314 -2.37662e-009 3.38839e-009 -3.27963e-009 2.90554 0.965183 0.102902 -2.37662e-009 3.38839e-009 -3.27964e-009 10.2786 0.731801 0.0259123 -2.37662e-009 3.3884e-009 -3.27963e-009 2.22167 -0.733487 -0.20892 1.01437e-013 3.71627e-013 2.73453e-014 -82.6697 18.2655 0.122581 10.6381 -4.43245 -19.1091 0.0545099 6.46115 -0.912193 -3.10443e-009 1.7341e-009 4.71288e-009 -5.33739e-009 3.01108e-009 8.16497e-009 -3.10443e-009 1.73411e-009 4.71289e-009 -7.73091 5.47488 -0.417314 -3.10443e-009 1.73411e-009 4.71288e-009 -2.90554 0.965183 -0.102902 -3.10444e-009 1.73411e-009 4.71288e-009 -10.2786 0.731801 -0.0259123 -3.10443e-009 1.7341e-009 4.71288e-009 -2.22167 -0.733487 0.20892 -2.03217e-016 0 -3.88251e-019 4.42406 -30.8121 9.27332 -0.00736988 11.3109 0.195447 -1.14004 -16.0895 -2.08109 2.03217e-016 0 3.88251e-019 -4.21123 -27.59 -7.96024 0.0148367 6.90115 -0.0669972 0.101179 -2.9981 -3.24831 
